<svg id="svg" version="1.1" xmlns="http://www.w3.org/2000/svg" xmlns:xlink="http://www.w3.org/1999/xlink" width="25" height="25" viewBox="0, 0, 400, 400"><g id="svgg"><path id="path0" d="M128.000 175.489 C 126.334 176.115,125.182 177.364,124.649 179.121 C 124.335 180.154,123.736 181.793,123.317 182.761 L 122.556 184.522 123.798 187.824 C 125.713 192.914,126.615 193.600,131.400 193.600 C 136.080 193.600,137.427 192.623,139.272 187.887 C 140.657 184.333,140.675 184.831,139.022 180.852 C 137.411 176.975,137.199 176.681,135.421 175.837 C 134.108 175.214,129.328 174.989,128.000 175.489 M192.835 180.501 C 188.705 182.586,188.000 183.642,188.000 187.747 C 188.000 191.743,188.820 192.891,193.075 194.857 C 197.273 196.797,197.265 196.798,203.509 193.711 C 208.892 191.050,207.254 182.877,200.800 180.196 C 196.936 178.592,196.591 178.605,192.835 180.501 M87.028 207.765 C 83.940 208.817,83.563 209.190,82.363 212.376 C 81.326 215.133,81.479 217.391,82.918 220.534 C 85.633 226.463,95.736 226.489,98.630 220.574 C 102.817 212.017,96.150 204.657,87.028 207.765 M56.454 245.176 C 55.054 245.980,53.538 247.170,53.086 247.819 C 51.530 250.052,50.194 251.312,47.535 253.051 C 46.069 254.010,43.865 255.920,42.636 257.297 L 40.404 259.800 40.402 265.638 C 40.399 275.155,34.335 274.156,93.600 274.400 C 148.337 274.625,143.486 274.333,147.424 277.644 C 148.318 278.396,149.848 279.349,150.824 279.763 C 156.388 282.121,157.535 282.766,158.215 283.918 C 158.743 284.812,159.660 285.407,161.764 286.221 C 166.017 287.867,167.630 288.748,169.464 290.427 C 170.398 291.282,171.886 292.154,172.857 292.415 C 175.482 293.122,178.389 294.721,180.511 296.627 C 181.562 297.570,183.272 298.645,184.311 299.014 C 185.350 299.384,186.740 299.885,187.400 300.128 C 188.060 300.371,189.410 301.319,190.400 302.234 C 192.321 304.010,194.242 305.103,197.740 306.412 C 198.938 306.860,200.701 307.906,201.659 308.736 C 202.616 309.566,204.300 310.576,205.400 310.981 C 208.786 312.226,210.918 313.469,212.934 315.373 C 215.035 317.358,214.921 317.324,219.000 317.213 C 222.004 317.131,223.398 316.536,223.999 315.079 C 224.198 314.595,224.799 313.074,225.335 311.697 L 226.309 309.195 225.203 307.697 C 224.595 306.874,223.382 305.535,222.507 304.722 C 217.542 300.106,218.444 289.783,224.437 282.629 C 230.607 275.263,229.217 275.550,260.600 275.168 C 288.640 274.827,291.755 274.624,295.159 272.921 L 297.400 271.800 297.510 265.783 L 297.620 259.765 294.710 256.955 C 293.109 255.409,290.957 253.571,289.927 252.871 C 288.897 252.171,287.098 250.500,285.930 249.157 C 283.866 246.784,281.684 245.355,278.800 244.488 C 277.841 244.200,242.972 244.012,168.200 243.890 L 59.000 243.714 56.454 245.176 " stroke="none" fill="#fcfcfa" fill-rule="evenodd"></path><path id="path1" d="M157.513 160.840 C 154.275 161.017,147.705 161.519,142.913 161.955 C 138.121 162.392,132.670 162.866,130.800 163.009 C 125.956 163.380,122.306 164.256,118.400 165.988 C 116.530 166.817,113.740 167.796,112.200 168.164 C 103.839 170.161,102.571 170.593,100.091 172.290 C 98.448 173.414,96.513 174.297,94.491 174.846 C 90.805 175.846,88.764 176.912,87.650 178.418 C 87.199 179.029,85.428 180.366,83.715 181.390 C 79.876 183.684,71.268 191.886,68.800 195.600 C 67.850 197.030,66.318 199.019,65.396 200.019 C 64.224 201.290,63.446 202.676,62.814 204.619 C 62.317 206.149,61.221 208.480,60.379 209.800 C 57.831 213.793,56.370 221.026,54.606 238.371 C 54.462 239.784,54.022 241.584,53.627 242.371 C 53.232 243.157,52.612 244.710,52.248 245.823 C 51.447 248.273,49.118 250.678,46.000 252.274 C 44.175 253.208,43.603 253.775,42.644 255.600 C 41.415 257.940,41.573 257.917,43.347 255.494 C 43.953 254.666,45.362 253.526,46.477 252.961 C 50.887 250.726,55.600 243.378,55.600 238.734 C 55.601 236.595,56.993 224.003,57.822 218.648 C 58.442 214.639,58.572 214.305,61.040 210.400 C 61.805 209.190,62.824 206.850,63.306 205.200 C 63.993 202.843,64.532 201.848,65.820 200.560 C 66.721 199.658,68.414 197.498,69.582 195.760 C 72.084 192.034,80.429 184.087,83.901 182.122 C 85.143 181.420,87.158 179.877,88.380 178.694 C 90.444 176.694,90.888 176.464,94.709 175.420 C 97.532 174.649,99.348 173.895,100.509 173.012 C 103.136 171.015,104.229 170.646,113.600 168.591 C 115.250 168.230,117.854 167.306,119.388 166.539 C 122.837 164.812,127.368 163.742,132.600 163.416 C 134.800 163.280,140.200 162.870,144.600 162.506 C 155.701 161.587,181.943 161.582,193.000 162.496 C 197.400 162.860,202.800 163.269,205.000 163.406 C 209.824 163.706,214.887 164.825,217.573 166.186 C 219.814 167.322,225.542 169.460,230.000 170.824 C 232.107 171.469,233.366 172.124,234.229 173.024 C 235.940 174.809,237.324 175.441,242.371 176.740 C 246.771 177.874,248.000 178.456,248.000 179.408 C 248.000 180.158,250.643 182.348,251.907 182.646 C 253.742 183.077,255.479 184.342,256.015 185.637 C 256.296 186.313,257.442 187.551,258.562 188.387 C 262.577 191.382,267.045 196.082,268.183 198.509 C 269.020 200.292,269.620 200.998,270.820 201.610 C 272.611 202.524,272.988 203.117,273.359 205.600 C 273.962 209.644,275.560 213.911,276.850 214.920 C 278.903 216.527,279.651 220.813,280.237 234.322 L 280.520 240.845 282.660 243.455 C 283.837 244.891,284.800 246.215,284.800 246.397 C 284.800 247.327,288.372 251.045,290.723 252.563 C 292.195 253.513,293.903 254.990,294.517 255.845 C 296.699 258.883,296.844 258.970,295.530 256.458 C 294.466 254.424,293.759 253.635,292.000 252.516 C 286.541 249.046,283.457 243.720,282.784 236.601 C 281.177 219.616,280.219 215.259,276.974 210.186 C 276.212 208.995,275.301 206.891,274.950 205.510 C 274.139 202.324,273.843 201.755,271.987 199.800 C 271.151 198.920,269.597 196.919,268.533 195.354 C 267.390 193.671,265.054 191.136,262.818 189.154 C 260.738 187.309,258.417 185.119,257.660 184.287 C 256.903 183.455,255.185 182.157,253.842 181.402 C 252.499 180.648,250.613 179.215,249.651 178.217 C 248.610 177.137,247.314 176.245,246.451 176.014 C 245.653 175.799,243.984 175.349,242.742 175.013 C 241.499 174.677,239.519 173.753,238.342 172.960 C 235.165 170.822,234.644 170.608,229.224 169.233 C 226.487 168.538,223.157 167.511,221.824 166.950 C 214.264 163.766,212.925 163.471,202.200 162.625 C 197.800 162.278,192.490 161.815,190.400 161.596 C 180.022 160.508,168.458 160.243,157.513 160.840 M295.061 273.385 C 294.654 273.693,292.782 274.352,290.900 274.849 C 288.458 275.494,286.643 276.304,284.561 277.677 C 282.956 278.735,280.329 280.207,278.722 280.948 C 276.626 281.915,275.383 282.805,274.326 284.094 C 273.211 285.452,272.332 286.059,270.726 286.577 C 268.207 287.390,265.639 288.824,264.107 290.272 C 263.498 290.847,261.668 291.939,260.041 292.699 C 258.413 293.458,256.253 294.851,255.241 295.794 C 254.136 296.823,251.802 298.254,249.407 299.371 C 246.549 300.703,244.878 301.779,243.533 303.153 C 242.251 304.462,240.911 305.347,239.326 305.930 C 238.047 306.401,236.010 307.541,234.800 308.463 C 233.590 309.386,231.250 310.859,229.600 311.738 C 227.850 312.671,225.767 314.210,224.600 315.433 L 222.600 317.529 219.121 317.810 C 215.381 318.112,214.079 317.691,212.174 315.561 C 211.004 314.254,208.596 312.838,205.668 311.736 C 204.220 311.191,202.396 310.173,201.614 309.473 C 200.128 308.142,199.259 307.665,194.532 305.578 C 192.955 304.881,191.155 303.775,190.532 303.119 C 189.283 301.804,187.529 300.813,184.318 299.607 C 183.153 299.170,181.210 297.993,180.000 296.991 C 177.949 295.294,175.560 293.978,171.213 292.151 C 170.231 291.738,168.791 290.817,168.013 290.103 C 167.236 289.390,164.980 288.158,163.000 287.365 C 160.380 286.316,158.853 285.407,157.390 284.024 C 156.146 282.849,154.503 281.797,153.081 281.265 C 149.939 280.089,147.061 278.597,146.400 277.800 C 146.098 277.436,144.939 276.657,143.825 276.069 L 141.800 275.000 93.600 274.800 C 55.698 274.643,45.153 274.491,44.245 274.089 C 43.609 273.808,43.015 273.652,42.924 273.743 C 41.787 274.880,46.013 275.003,93.200 275.200 L 141.000 275.400 142.722 276.319 C 143.669 276.825,145.228 277.838,146.188 278.570 C 147.147 279.302,149.588 280.588,151.612 281.427 C 154.220 282.508,155.862 283.493,157.252 284.813 C 158.638 286.128,160.114 287.015,162.281 287.837 C 163.968 288.477,166.495 289.844,167.897 290.877 C 169.299 291.909,171.110 292.964,171.923 293.221 C 173.900 293.847,176.527 295.365,179.200 297.426 C 180.410 298.359,182.805 299.700,184.522 300.407 C 186.351 301.161,188.552 302.468,189.836 303.563 C 191.271 304.788,193.212 305.897,195.459 306.777 C 197.407 307.539,199.626 308.757,200.593 309.594 C 201.530 310.405,203.740 311.650,205.504 312.361 C 207.413 313.131,209.560 314.379,210.808 315.444 C 215.898 319.788,222.280 319.786,225.702 315.438 C 226.355 314.608,228.119 313.354,230.043 312.353 C 231.824 311.427,234.000 310.068,234.878 309.335 C 235.756 308.601,237.828 307.359,239.484 306.573 C 241.139 305.788,243.342 304.351,244.380 303.380 C 245.520 302.314,247.761 300.922,250.044 299.863 C 252.262 298.833,254.515 297.442,255.503 296.493 C 256.429 295.604,258.580 294.188,260.283 293.346 C 261.987 292.504,264.169 291.214,265.132 290.478 C 266.096 289.743,268.530 288.356,270.542 287.396 C 273.180 286.138,274.400 285.313,274.916 284.437 C 275.439 283.549,276.754 282.673,279.796 281.183 C 282.086 280.062,284.576 278.655,285.330 278.056 C 286.944 276.773,288.937 275.868,292.086 274.990 C 293.343 274.639,294.783 274.009,295.286 273.589 C 296.340 272.710,296.163 272.550,295.061 273.385 M43.400 294.784 C 33.481 295.579,28.579 302.889,31.406 312.669 C 32.678 317.067,33.396 317.824,37.233 318.809 C 44.179 320.593,49.907 323.558,52.189 326.550 C 53.624 328.431,53.994 331.788,53.997 342.967 C 54.000 353.377,54.204 355.480,55.881 362.400 C 57.093 367.403,58.042 369.156,61.137 372.108 C 63.556 374.414,63.633 374.448,70.200 376.071 L 73.800 376.961 167.000 376.839 C 218.260 376.773,261.550 376.567,263.200 376.382 C 277.172 374.818,280.682 371.388,283.445 356.600 C 283.780 354.805,283.974 350.338,283.984 344.159 C 284.002 333.302,284.009 333.329,280.662 330.637 L 279.125 329.400 263.262 329.400 L 247.400 329.400 240.639 331.174 C 234.382 332.816,233.756 333.065,232.239 334.513 C 227.250 339.277,219.057 341.480,213.835 339.462 C 212.496 338.944,210.550 338.210,209.511 337.831 C 208.472 337.452,206.732 336.342,205.644 335.364 C 203.673 333.592,201.223 332.314,197.374 331.050 C 196.212 330.669,194.341 329.534,192.991 328.392 C 191.695 327.297,190.447 326.399,190.217 326.399 C 188.755 326.393,183.349 323.871,181.861 322.499 C 180.861 321.577,179.014 320.492,177.380 319.865 C 175.755 319.242,173.494 317.915,171.938 316.672 C 170.302 315.365,167.903 313.976,165.712 313.068 C 163.469 312.138,161.653 311.080,160.813 310.213 C 159.902 309.274,158.270 308.367,155.686 307.366 C 152.929 306.298,151.334 305.389,149.839 304.036 C 148.396 302.728,146.863 301.838,144.689 301.045 C 142.628 300.294,140.960 299.348,139.697 298.215 C 138.654 297.279,136.990 296.083,136.000 295.557 L 134.200 294.600 90.600 294.548 C 66.620 294.519,45.380 294.625,43.400 294.784 M188.000 330.183 C 197.240 331.689,202.119 333.280,204.654 335.611 C 206.478 337.288,207.790 338.041,210.200 338.792 C 211.080 339.066,212.880 339.787,214.200 340.393 C 215.520 341.000,217.860 341.781,219.400 342.129 L 222.200 342.762 224.200 341.416 C 225.300 340.675,227.122 339.800,228.249 339.471 C 231.381 338.558,232.711 337.725,233.802 335.996 C 234.351 335.127,235.205 334.317,235.700 334.198 C 241.454 332.810,242.859 332.714,260.200 332.523 L 277.800 332.330 279.200 333.281 L 280.600 334.231 280.724 344.816 C 280.931 362.395,280.217 366.215,276.215 368.950 C 275.611 369.362,274.877 370.276,274.582 370.982 C 273.099 374.532,277.273 374.368,187.600 374.392 C 111.970 374.413,110.131 374.432,107.200 375.200 C 100.048 377.075,67.500 375.999,64.107 373.776 C 57.331 369.336,55.602 363.979,55.303 346.495 C 55.087 333.907,55.052 334.152,57.471 331.565 L 59.309 329.600 121.955 329.614 C 173.397 329.626,185.208 329.728,188.000 330.183 " stroke="none" fill="#db6c72" fill-rule="evenodd"></path><path id="path2" d="M150.000 164.248 C 128.932 164.888,125.847 165.244,124.825 167.154 C 123.936 168.815,119.669 170.103,112.800 170.786 C 107.754 171.287,106.424 171.721,104.133 173.614 C 101.926 175.439,100.577 175.979,95.000 177.272 C 91.159 178.163,90.974 178.256,90.343 179.600 C 89.437 181.531,88.474 182.303,85.964 183.108 C 84.132 183.697,83.615 184.098,82.507 185.792 C 81.658 187.090,80.598 188.092,79.461 188.669 C 78.502 189.157,77.196 190.207,76.559 191.004 C 75.385 192.471,73.873 194.017,71.931 195.739 C 71.343 196.260,70.665 197.416,70.425 198.307 C 69.981 199.957,67.704 202.400,66.610 202.400 C 65.792 202.400,65.630 202.800,64.597 207.371 C 63.521 212.135,62.493 214.395,60.879 215.544 C 59.080 216.825,58.728 218.807,58.243 230.400 L 57.800 241.000 55.451 244.162 C 53.591 246.666,53.342 247.158,54.251 246.525 C 54.883 246.085,56.300 245.256,57.400 244.681 L 59.400 243.636 169.000 243.918 L 278.600 244.200 280.999 245.323 C 282.318 245.941,283.848 246.840,284.399 247.322 C 285.140 247.969,285.088 247.845,284.200 246.844 C 283.540 246.100,281.937 244.796,280.638 243.946 L 278.276 242.400 200.238 242.399 C 114.112 242.397,116.059 242.450,114.104 240.084 C 110.446 235.660,109.525 230.032,111.544 224.449 C 113.110 220.120,113.636 219.615,118.645 217.619 C 125.913 214.724,124.598 214.815,159.584 214.807 L 190.968 214.800 197.930 213.577 C 206.257 212.115,208.464 211.348,210.967 209.051 C 212.009 208.094,213.621 206.932,214.549 206.468 C 216.518 205.485,217.466 204.503,218.933 201.929 C 219.519 200.901,220.629 199.539,221.400 198.905 C 223.280 197.355,224.201 195.304,225.185 190.474 C 225.639 188.248,226.163 186.015,226.350 185.513 C 227.044 183.654,227.269 177.977,226.761 175.140 C 226.171 171.836,225.320 171.192,220.266 170.225 C 216.553 169.515,214.524 168.671,213.000 167.204 C 211.174 165.447,210.029 165.189,202.219 164.779 C 194.647 164.382,157.904 164.008,150.000 164.248 M135.421 175.837 C 137.199 176.681,137.411 176.975,139.022 180.852 C 140.675 184.831,140.657 184.333,139.272 187.887 C 137.427 192.623,136.080 193.600,131.400 193.600 C 126.615 193.600,125.713 192.914,123.798 187.824 L 122.556 184.522 123.317 182.761 C 123.736 181.793,124.335 180.154,124.649 179.121 C 125.727 175.567,131.283 173.873,135.421 175.837 M200.800 180.196 C 207.254 182.877,208.892 191.050,203.509 193.711 C 197.265 196.798,197.273 196.797,193.075 194.857 C 188.820 192.891,188.000 191.743,188.000 187.747 C 188.000 183.642,188.705 182.586,192.835 180.501 C 196.591 178.605,196.936 178.592,200.800 180.196 M94.128 207.607 C 103.649 210.548,100.920 224.933,90.841 224.933 C 84.067 224.933,79.938 218.819,82.363 212.376 C 84.143 207.648,88.518 205.874,94.128 207.607 M43.781 255.700 L 42.200 257.400 43.900 255.819 C 44.835 254.949,45.600 254.184,45.600 254.119 C 45.600 253.816,45.252 254.119,43.781 255.700 M138.900 274.676 C 139.285 274.776,139.915 274.776,140.300 274.676 C 140.685 274.575,140.370 274.493,139.600 274.493 C 138.830 274.493,138.515 274.575,138.900 274.676 M283.800 274.821 C 281.820 274.983,271.200 275.138,260.200 275.165 C 230.871 275.237,230.638 275.285,224.548 282.503 C 218.444 289.738,217.496 300.063,222.507 304.722 C 225.207 307.233,226.448 309.163,225.955 310.085 C 224.842 312.165,223.953 315.464,224.793 314.400 C 225.227 313.850,225.586 313.273,225.591 313.118 C 225.596 312.962,226.848 312.106,228.374 311.215 C 229.899 310.324,231.258 309.247,231.393 308.822 C 231.978 306.978,234.598 305.409,239.569 303.927 C 241.030 303.492,241.417 303.165,241.788 302.049 C 242.347 300.372,243.582 299.343,245.736 298.763 C 248.063 298.137,250.241 296.963,250.947 295.954 C 252.096 294.314,255.274 292.416,257.718 291.911 C 259.407 291.562,260.288 291.148,260.749 290.485 C 262.754 287.605,263.211 287.283,267.435 285.778 C 271.227 284.427,271.774 284.108,272.635 282.744 C 273.790 280.915,275.038 280.041,277.188 279.558 C 278.070 279.360,279.648 278.672,280.696 278.030 C 283.191 276.499,286.373 275.266,288.936 274.838 L 291.000 274.494 289.200 274.510 C 288.210 274.519,285.780 274.659,283.800 274.821 M167.600 288.925 C 167.600 288.994,168.185 289.579,168.900 290.225 L 170.200 291.400 169.025 290.100 C 167.930 288.888,167.600 288.616,167.600 288.925 M178.400 294.925 C 178.400 294.994,178.985 295.579,179.700 296.225 L 181.000 297.400 179.825 296.100 C 178.730 294.888,178.400 294.616,178.400 294.925 M217.300 317.476 C 217.685 317.576,218.315 317.576,218.700 317.476 C 219.085 317.375,218.770 317.293,218.000 317.293 C 217.230 317.293,216.915 317.375,217.300 317.476 M58.626 333.971 C 57.949 334.719,57.914 335.739,58.064 349.922 C 58.241 366.557,58.265 366.712,60.720 367.646 C 62.305 368.248,63.214 369.193,64.032 371.087 C 64.512 372.198,65.075 372.846,65.680 372.984 C 68.924 373.720,75.219 374.000,88.495 374.000 C 106.531 374.000,105.778 374.185,107.220 369.400 C 108.652 364.651,111.506 362.253,118.412 359.996 L 122.072 358.800 155.852 358.800 C 202.350 358.800,203.541 358.626,211.135 350.738 L 214.467 347.277 213.005 344.237 C 211.398 340.895,210.981 340.558,207.438 339.731 C 204.758 339.106,201.607 337.281,200.628 335.787 C 198.944 333.216,204.588 333.412,128.375 333.286 C 59.817 333.173,59.344 333.178,58.626 333.971 " stroke="none" fill="#fcdc74" fill-rule="evenodd"></path><path id="path3" d="M155.400 161.847 C 153.860 161.928,149.000 162.259,144.600 162.581 C 140.200 162.903,134.800 163.279,132.600 163.416 C 127.367 163.742,122.836 164.813,119.388 166.539 C 117.854 167.306,115.250 168.230,113.600 168.591 C 104.229 170.646,103.136 171.015,100.509 173.012 C 99.348 173.895,97.532 174.649,94.709 175.420 C 90.888 176.464,90.444 176.694,88.380 178.694 C 87.158 179.877,85.143 181.420,83.901 182.122 C 80.429 184.087,72.084 192.034,69.582 195.760 C 68.414 197.498,66.721 199.658,65.820 200.560 C 64.532 201.848,63.993 202.843,63.306 205.200 C 62.824 206.850,61.805 209.190,61.040 210.400 C 58.572 214.305,58.442 214.639,57.822 218.648 C 56.993 224.003,55.601 236.595,55.600 238.734 C 55.600 243.388,51.023 250.522,46.433 253.023 C 45.245 253.671,43.809 254.830,43.240 255.600 L 42.207 257.000 44.040 255.400 C 45.048 254.520,46.908 253.170,48.174 252.400 C 50.055 251.256,51.144 250.086,54.134 246.000 L 57.792 241.000 58.239 230.400 C 58.728 218.808,59.081 216.824,60.879 215.544 C 62.493 214.395,63.521 212.135,64.597 207.371 C 65.630 202.800,65.792 202.400,66.610 202.400 C 67.706 202.400,69.981 199.957,70.427 198.300 C 70.678 197.368,71.406 196.190,72.132 195.541 C 74.188 193.705,75.328 192.535,76.559 191.001 C 77.196 190.206,78.502 189.157,79.461 188.669 C 80.598 188.092,81.658 187.090,82.507 185.792 C 83.615 184.098,84.132 183.697,85.964 183.108 C 88.474 182.303,89.437 181.531,90.343 179.600 C 90.974 178.256,91.159 178.163,95.000 177.272 C 100.577 175.979,101.926 175.439,104.133 173.614 C 106.424 171.721,107.754 171.287,112.800 170.786 C 119.669 170.103,123.936 168.815,124.825 167.154 C 126.091 164.788,134.283 164.254,169.200 164.262 C 203.818 164.269,210.411 164.712,213.000 167.204 C 214.524 168.671,216.553 169.515,220.266 170.225 C 225.320 171.192,226.171 171.836,226.761 175.140 C 227.269 177.977,227.044 183.654,226.350 185.513 C 226.163 186.015,225.639 188.248,225.185 190.474 C 224.201 195.304,223.280 197.355,221.400 198.905 C 220.629 199.539,219.519 200.901,218.933 201.929 C 217.466 204.503,216.518 205.485,214.549 206.468 C 213.621 206.932,212.009 208.094,210.967 209.051 C 208.464 211.348,206.257 212.115,197.930 213.577 L 190.968 214.800 159.584 214.807 C 124.598 214.815,125.913 214.724,118.645 217.619 C 113.636 219.615,113.110 220.120,111.544 224.449 C 109.525 230.032,110.446 235.660,114.104 240.084 C 116.059 242.450,114.109 242.397,200.264 242.399 L 278.327 242.400 280.852 244.100 C 282.240 245.035,284.372 247.014,285.588 248.498 C 286.805 249.982,288.880 251.932,290.200 252.830 C 291.520 253.728,293.387 255.304,294.349 256.332 C 296.232 258.342,296.189 257.928,294.263 255.505 C 293.609 254.683,291.952 253.307,290.579 252.446 C 288.384 251.070,284.800 247.318,284.800 246.397 C 284.800 246.215,283.837 244.891,282.660 243.455 L 280.520 240.845 280.237 234.322 C 279.651 220.813,278.903 216.527,276.850 214.920 C 275.560 213.911,273.962 209.644,273.359 205.600 C 272.988 203.117,272.611 202.524,270.820 201.610 C 269.620 200.998,269.020 200.292,268.183 198.509 C 267.045 196.082,262.577 191.382,258.562 188.387 C 257.442 187.551,256.296 186.313,256.015 185.637 C 255.479 184.342,253.742 183.077,251.907 182.646 C 250.643 182.348,248.000 180.158,248.000 179.408 C 248.000 178.456,246.771 177.874,242.371 176.740 C 237.324 175.441,235.940 174.809,234.229 173.024 C 233.366 172.124,232.107 171.469,230.000 170.824 C 225.542 169.460,219.814 167.322,217.573 166.186 C 214.434 164.596,209.609 163.680,201.800 163.192 C 197.840 162.944,192.800 162.571,190.600 162.361 C 186.458 161.967,160.332 161.585,155.400 161.847 M69.300 274.700 C 82.005 274.759,102.795 274.759,115.500 274.700 C 128.205 274.641,117.810 274.593,92.400 274.593 C 66.990 274.593,56.595 274.641,69.300 274.700 M285.516 275.764 C 284.040 276.285,281.923 277.271,280.812 277.955 C 279.701 278.638,278.070 279.360,277.188 279.558 C 275.038 280.041,273.790 280.915,272.635 282.744 C 271.774 284.108,271.227 284.427,267.435 285.778 C 263.211 287.283,262.754 287.605,260.749 290.485 C 260.288 291.148,259.407 291.562,257.718 291.911 C 255.274 292.416,252.096 294.314,250.947 295.954 C 250.241 296.963,248.063 298.137,245.736 298.763 C 243.582 299.343,242.347 300.372,241.788 302.049 C 241.417 303.165,241.030 303.492,239.569 303.927 C 234.598 305.409,231.978 306.978,231.393 308.822 C 231.258 309.247,229.944 310.304,228.474 311.169 C 226.563 312.294,225.474 313.267,224.658 314.580 C 222.224 318.495,216.489 318.775,212.540 315.172 C 210.742 313.532,209.181 312.648,205.293 311.069 C 203.914 310.509,202.064 309.433,201.182 308.678 C 200.300 307.923,198.002 306.652,196.075 305.853 C 193.724 304.878,191.960 303.823,190.714 302.646 C 189.466 301.467,187.896 300.528,185.928 299.785 C 182.795 298.601,181.308 297.730,179.400 295.959 C 178.205 294.851,173.904 292.685,172.000 292.233 L 171.000 291.996 172.000 292.449 C 176.335 294.413,178.088 295.408,180.000 296.991 C 181.210 297.993,183.153 299.170,184.318 299.607 C 187.529 300.813,189.283 301.804,190.532 303.119 C 191.155 303.775,192.955 304.881,194.532 305.578 C 199.259 307.665,200.128 308.142,201.614 309.473 C 202.396 310.173,204.220 311.191,205.668 311.736 C 208.596 312.838,211.004 314.254,212.174 315.561 C 214.079 317.691,215.381 318.112,219.121 317.810 L 222.600 317.529 224.600 315.433 C 225.767 314.210,227.850 312.671,229.600 311.738 C 231.250 310.859,233.590 309.386,234.800 308.463 C 236.010 307.541,238.047 306.401,239.326 305.930 C 240.911 305.347,242.251 304.462,243.533 303.153 C 244.878 301.779,246.549 300.703,249.407 299.371 C 251.802 298.254,254.136 296.823,255.241 295.794 C 256.253 294.851,258.413 293.458,260.041 292.699 C 261.668 291.939,263.498 290.847,264.107 290.272 C 265.639 288.824,268.207 287.390,270.726 286.577 C 272.332 286.059,273.211 285.452,274.326 284.094 C 275.390 282.797,276.627 281.915,278.771 280.926 C 280.405 280.172,282.957 278.740,284.442 277.744 C 285.926 276.748,287.920 275.690,288.871 275.393 C 290.438 274.904,290.488 274.852,289.400 274.835 C 288.740 274.825,286.992 275.243,285.516 275.764 M143.800 276.063 C 144.680 276.518,145.850 277.300,146.400 277.801 C 147.579 278.875,149.871 280.064,153.071 281.261 C 154.504 281.797,156.143 282.846,157.390 284.024 C 158.860 285.414,160.379 286.315,163.044 287.382 C 165.048 288.183,167.208 289.343,167.844 289.959 C 168.480 290.575,169.450 291.309,170.000 291.590 C 170.688 291.943,170.501 291.647,169.400 290.645 C 167.643 289.044,165.467 287.827,161.800 286.395 C 160.256 285.793,158.755 284.806,157.592 283.629 C 156.215 282.237,154.963 281.487,152.349 280.488 C 150.460 279.766,148.214 278.577,147.357 277.846 C 145.651 276.390,143.533 275.190,142.720 275.218 C 142.434 275.227,142.920 275.608,143.800 276.063 M57.471 331.565 C 55.052 334.152,55.087 333.907,55.303 346.495 C 55.602 363.979,57.331 369.336,64.107 373.776 C 67.500 375.999,100.048 377.075,107.200 375.200 C 110.131 374.432,111.970 374.413,187.600 374.392 C 277.273 374.368,273.099 374.532,274.582 370.982 C 274.877 370.276,275.611 369.362,276.215 368.950 C 280.217 366.215,280.931 362.395,280.724 344.816 L 280.600 334.231 279.200 333.281 L 277.800 332.330 260.200 332.523 C 242.859 332.714,241.454 332.810,235.700 334.198 C 235.205 334.317,234.351 335.127,233.802 335.996 C 232.711 337.725,231.381 338.558,228.249 339.471 C 227.122 339.800,225.300 340.675,224.200 341.416 L 222.200 342.762 219.400 342.129 C 217.860 341.781,215.520 341.000,214.200 340.393 C 212.880 339.787,211.080 339.066,210.200 338.792 C 207.790 338.041,206.478 337.288,204.654 335.611 C 202.595 333.717,200.919 333.000,195.600 331.736 C 186.374 329.542,189.394 329.629,121.955 329.614 L 59.309 329.600 57.471 331.565 M198.696 334.108 C 199.409 334.498,200.279 335.253,200.628 335.787 C 201.607 337.281,204.758 339.106,207.438 339.731 C 210.981 340.558,211.398 340.895,213.005 344.237 L 214.467 347.277 211.135 350.738 C 203.541 358.626,202.350 358.800,155.852 358.800 L 122.072 358.800 118.412 359.996 C 111.506 362.253,108.652 364.651,107.220 369.400 C 105.778 374.185,106.531 374.000,88.495 374.000 C 75.219 374.000,68.924 373.720,65.680 372.984 C 65.075 372.846,64.512 372.198,64.032 371.087 C 63.214 369.193,62.305 368.248,60.720 367.646 C 58.265 366.712,58.241 366.557,58.064 349.922 C 57.914 335.739,57.949 334.719,58.626 333.971 C 59.693 332.792,196.533 332.926,198.696 334.108 " stroke="none" fill="#faae6c" fill-rule="evenodd"></path><path id="path4" d="M146.800 134.421 C 131.503 134.672,129.682 134.805,128.400 135.760 C 128.070 136.006,127.157 136.531,126.372 136.928 C 125.445 137.396,124.776 138.110,124.468 138.962 L 123.994 140.275 114.438 140.550 C 100.342 140.955,98.284 141.485,97.745 144.853 L 97.509 146.327 92.855 146.597 C 85.249 147.038,84.411 147.541,84.402 151.663 C 84.400 152.723,84.391 152.726,80.500 152.978 C 73.384 153.439,72.662 153.783,72.189 156.935 C 71.897 158.883,71.449 159.182,68.800 159.197 C 68.030 159.202,66.860 159.563,66.200 160.000 C 65.540 160.437,64.667 160.796,64.260 160.797 C 63.240 160.801,60.800 163.328,60.800 164.380 C 60.800 165.336,58.795 166.400,56.995 166.400 C 55.582 166.400,54.000 168.067,54.000 169.556 C 54.000 171.731,53.362 172.733,51.789 173.028 C 50.204 173.326,48.000 174.950,48.000 175.822 C 48.000 176.124,47.748 177.143,47.439 178.086 C 47.131 179.029,46.761 180.813,46.617 182.051 L 46.355 184.303 44.303 184.500 C 41.499 184.769,40.800 185.674,40.800 189.036 L 40.800 191.584 39.184 192.408 C 37.545 193.244,36.004 195.225,36.001 196.500 C 36.001 196.885,35.834 197.200,35.631 197.200 C 34.925 197.200,34.449 199.834,34.181 205.220 L 33.912 210.641 32.457 211.421 C 31.058 212.171,30.546 212.927,28.953 216.600 C 28.093 218.585,27.470 236.629,27.938 246.032 C 28.287 253.057,28.407 253.284,31.910 253.596 L 34.200 253.800 34.319 255.856 C 34.476 258.557,35.295 259.298,38.365 259.520 L 40.701 259.689 42.251 256.544 C 43.676 253.652,43.976 253.310,46.000 252.274 C 49.118 250.678,51.447 248.273,52.248 245.823 C 52.612 244.710,53.232 243.157,53.627 242.371 C 54.022 241.584,54.462 239.784,54.606 238.371 C 56.370 221.026,57.831 213.793,60.379 209.800 C 61.221 208.480,62.317 206.149,62.814 204.619 C 63.446 202.676,64.224 201.290,65.396 200.019 C 66.318 199.019,67.850 197.030,68.800 195.600 C 71.268 191.886,79.876 183.684,83.715 181.390 C 85.428 180.366,87.199 179.029,87.650 178.418 C 88.764 176.912,90.805 175.846,94.491 174.846 C 96.513 174.297,98.448 173.414,100.091 172.290 C 102.571 170.593,103.839 170.161,112.200 168.164 C 113.740 167.796,116.530 166.816,118.400 165.985 C 122.633 164.105,126.238 163.337,133.400 162.790 C 136.480 162.555,141.610 162.108,144.800 161.798 C 160.635 160.256,177.657 160.177,190.400 161.588 C 192.270 161.795,197.490 162.255,202.000 162.610 C 211.147 163.330,214.558 163.928,218.154 165.441 C 223.350 167.629,224.650 168.073,229.349 169.265 C 234.640 170.607,235.172 170.826,238.342 172.960 C 239.519 173.753,241.499 174.677,242.742 175.013 C 243.984 175.349,245.653 175.799,246.451 176.014 C 247.314 176.245,248.610 177.137,249.651 178.217 C 250.613 179.215,252.499 180.648,253.842 181.402 C 255.185 182.157,256.903 183.455,257.660 184.287 C 258.417 185.119,260.738 187.309,262.818 189.154 C 265.054 191.136,267.390 193.671,268.533 195.354 C 269.597 196.919,271.151 198.920,271.987 199.800 C 273.843 201.755,274.139 202.324,274.950 205.510 C 275.301 206.891,276.212 208.995,276.974 210.186 C 280.219 215.259,281.177 219.616,282.784 236.601 C 283.463 243.785,286.774 249.441,292.141 252.586 C 293.659 253.476,294.355 254.284,295.676 256.691 L 297.320 259.687 299.645 259.519 C 302.705 259.298,303.524 258.554,303.681 255.856 L 303.800 253.800 305.856 253.681 C 309.743 253.455,310.078 251.510,309.717 231.200 C 309.470 217.285,308.640 213.517,305.442 211.795 L 304.083 211.063 303.814 205.431 C 303.552 199.947,303.082 197.200,302.405 197.200 C 302.221 197.200,301.699 196.431,301.244 195.491 C 300.774 194.519,299.853 193.454,299.108 193.021 C 297.374 192.012,297.213 191.720,297.206 189.560 C 297.194 185.843,295.952 184.400,292.769 184.400 C 291.712 184.400,291.645 184.287,291.404 182.100 C 291.265 180.835,290.905 179.170,290.604 178.400 C 290.304 177.630,289.950 176.499,289.818 175.888 C 289.557 174.675,287.554 173.204,286.162 173.201 C 284.986 173.199,284.000 171.962,284.000 170.487 C 284.000 167.903,282.552 166.400,280.061 166.400 C 278.466 166.400,276.871 165.534,276.619 164.531 C 276.313 163.315,274.537 161.297,273.482 160.966 C 272.997 160.814,272.171 160.355,271.646 159.945 C 271.121 159.535,270.041 159.198,269.246 159.195 C 266.520 159.184,266.061 158.883,265.765 156.905 C 265.301 153.813,264.713 153.546,257.100 152.970 C 253.654 152.710,253.600 152.689,253.598 151.653 C 253.590 148.031,252.218 146.808,248.160 146.802 C 247.259 146.801,245.163 146.685,243.503 146.545 L 240.485 146.290 240.252 144.834 C 239.704 141.407,235.393 140.513,218.991 140.426 L 214.182 140.400 213.432 139.007 C 212.992 138.190,212.003 137.265,211.041 136.770 C 210.138 136.305,208.966 135.686,208.434 135.393 C 206.565 134.362,177.895 133.910,146.800 134.421 M25.800 271.971 C 24.480 272.108,23.040 272.416,22.600 272.657 C 22.160 272.898,21.170 273.214,20.400 273.361 C 18.517 273.718,17.249 274.853,16.929 276.467 C 16.605 278.103,15.796 278.771,14.119 278.787 C 10.704 278.821,10.410 279.358,9.143 287.854 L 8.718 290.708 6.859 290.960 C 4.311 291.307,4.072 291.529,3.573 294.021 C 2.821 297.776,2.961 319.473,3.749 321.349 C 4.107 322.201,4.400 323.226,4.400 323.627 C 4.400 324.713,6.114 326.500,7.649 327.015 C 8.954 327.453,9.008 327.555,9.247 330.034 C 9.634 334.044,10.397 334.800,14.060 334.800 C 15.580 334.800,15.600 334.820,15.600 336.340 C 15.600 339.954,16.358 340.748,20.195 341.149 C 22.182 341.357,22.612 341.537,22.711 342.200 C 23.011 344.196,23.267 344.832,24.080 345.589 C 24.574 346.049,25.498 346.400,26.213 346.400 L 27.476 346.400 27.747 357.700 C 28.111 372.876,29.129 377.200,32.341 377.200 C 33.711 377.200,34.400 378.289,34.400 380.455 C 34.400 383.825,35.213 384.785,38.076 384.794 C 40.292 384.801,40.304 384.816,40.740 388.001 C 41.131 390.864,41.300 391.017,44.449 391.374 L 46.800 391.640 46.800 393.376 C 46.800 396.110,47.744 396.957,51.064 397.200 L 53.800 397.400 53.925 398.700 L 54.051 400.000 194.625 400.000 L 335.200 400.000 335.200 398.600 L 335.200 397.200 337.156 397.200 C 340.823 397.200,340.978 396.861,341.130 388.536 C 341.268 380.960,340.951 378.777,339.623 378.162 C 339.193 377.963,338.420 377.170,337.907 376.400 C 337.392 375.628,336.565 374.941,336.064 374.869 C 335.564 374.797,334.960 374.311,334.722 373.789 C 334.003 372.210,332.389 371.978,320.346 371.720 L 308.892 371.474 309.203 370.391 C 309.374 369.794,309.646 364.173,309.808 357.899 L 310.102 346.492 311.710 346.276 C 313.763 346.001,314.803 344.948,315.083 342.859 C 315.303 341.219,315.324 341.200,316.953 341.198 C 321.103 341.192,322.391 339.986,322.398 336.100 C 322.400 334.892,322.495 334.800,323.740 334.800 C 327.240 334.800,328.400 333.449,328.400 329.372 C 328.400 327.351,328.450 327.253,329.610 326.998 C 331.332 326.620,333.095 324.995,333.417 323.489 C 333.568 322.780,333.885 321.961,334.121 321.669 C 335.203 320.328,335.152 295.500,334.061 292.724 C 333.639 291.649,331.749 290.807,329.747 290.802 C 328.994 290.800,328.843 290.458,328.463 287.900 C 327.207 279.453,326.877 278.825,323.681 278.787 C 322.198 278.770,321.383 278.045,321.071 276.467 C 320.751 274.853,319.484 273.719,317.600 273.360 C 316.830 273.213,315.688 272.834,315.061 272.516 C 314.234 272.097,311.696 271.876,305.778 271.708 L 297.632 271.478 296.061 272.897 C 295.057 273.804,293.642 274.554,292.145 274.972 C 288.936 275.869,286.952 276.767,285.330 278.056 C 284.576 278.655,282.086 280.062,279.796 281.183 C 276.754 282.673,275.439 283.549,274.916 284.437 C 274.400 285.313,273.180 286.138,270.542 287.396 C 268.530 288.356,266.096 289.743,265.132 290.478 C 264.169 291.214,261.987 292.504,260.283 293.346 C 258.580 294.188,256.429 295.604,255.503 296.493 C 254.515 297.442,252.262 298.833,250.044 299.863 C 247.761 300.922,245.520 302.314,244.380 303.380 C 243.342 304.351,241.139 305.788,239.484 306.573 C 237.828 307.359,235.756 308.601,234.878 309.335 C 234.000 310.068,231.824 311.427,230.043 312.353 C 228.119 313.354,226.355 314.608,225.702 315.438 C 222.280 319.786,215.898 319.788,210.808 315.444 C 209.560 314.379,207.413 313.131,205.504 312.361 C 203.740 311.650,201.530 310.405,200.593 309.594 C 199.626 308.757,197.407 307.539,195.459 306.777 C 193.212 305.897,191.271 304.788,189.836 303.563 C 188.552 302.468,186.351 301.161,184.522 300.407 C 182.805 299.700,180.410 298.359,179.200 297.426 C 176.527 295.365,173.900 293.847,171.923 293.221 C 171.110 292.964,169.299 291.909,167.897 290.877 C 166.495 289.844,163.968 288.477,162.281 287.837 C 160.114 287.015,158.638 286.128,157.252 284.813 C 155.862 283.493,154.220 282.508,151.612 281.427 C 149.588 280.588,147.147 279.302,146.188 278.570 C 145.228 277.838,143.669 276.825,142.722 276.319 L 141.000 275.400 93.200 275.200 L 45.400 275.000 43.524 274.133 C 42.492 273.656,41.414 272.891,41.128 272.433 C 40.580 271.555,32.236 271.304,25.800 271.971 M136.000 295.557 C 136.990 296.083,138.654 297.279,139.697 298.215 C 140.960 299.348,142.628 300.294,144.689 301.045 C 146.863 301.838,148.396 302.728,149.839 304.036 C 151.334 305.389,152.929 306.298,155.686 307.366 C 158.270 308.367,159.902 309.274,160.813 310.213 C 161.653 311.080,163.469 312.138,165.712 313.068 C 167.903 313.976,170.302 315.365,171.938 316.672 C 173.494 317.915,175.755 319.242,177.380 319.865 C 179.014 320.492,180.861 321.577,181.861 322.499 C 183.349 323.871,188.755 326.393,190.217 326.399 C 190.447 326.399,191.695 327.297,192.991 328.392 C 194.341 329.534,196.212 330.669,197.374 331.050 C 201.223 332.314,203.673 333.592,205.644 335.364 C 206.732 336.342,208.472 337.452,209.511 337.831 C 210.550 338.210,212.496 338.944,213.835 339.462 C 219.057 341.480,227.250 339.277,232.239 334.513 C 233.756 333.065,234.382 332.816,240.639 331.174 L 247.400 329.400 263.262 329.400 L 279.125 329.400 280.662 330.637 C 284.009 333.329,284.002 333.302,283.984 344.159 C 283.956 361.514,280.905 370.620,273.904 374.248 C 272.670 374.888,267.703 375.878,263.200 376.382 C 261.550 376.567,218.260 376.773,167.000 376.839 L 73.800 376.961 70.200 376.071 C 63.633 374.448,63.556 374.414,61.137 372.108 C 58.042 369.156,57.093 367.403,55.881 362.400 C 54.204 355.480,54.000 353.377,53.997 342.967 C 53.994 331.788,53.624 328.431,52.189 326.550 C 49.907 323.558,44.179 320.593,37.233 318.809 C 33.396 317.824,32.678 317.067,31.406 312.669 C 29.317 305.441,31.938 298.491,37.697 295.987 C 40.960 294.568,43.778 294.491,90.600 294.548 L 134.200 294.600 136.000 295.557 M363.418 372.445 C 362.109 372.635,360.794 373.034,360.498 373.331 C 359.177 374.651,358.457 385.876,359.061 395.738 L 359.322 400.000 372.000 400.000 L 384.678 400.000 384.939 395.738 C 385.539 385.932,384.824 374.652,383.519 373.347 C 382.320 372.148,369.426 371.569,363.418 372.445 " stroke="none" fill="#905864" fill-rule="evenodd"></path></g></svg>