<svg id="svg" version="1.1" xmlns="http://www.w3.org/2000/svg" xmlns:xlink="http://www.w3.org/1999/xlink" width="25" height="25" viewBox="0, 0, 400,400"><g id="svgg"><path id="path0" d="M122.007 22.900 C 121.164 25.228,120.449 33.170,120.019 45.000 C 119.242 66.357,118.502 75.592,116.784 85.400 C 115.114 94.930,114.597 104.044,113.963 135.118 C 113.367 164.365,113.523 165.937,117.223 167.812 C 118.517 168.467,119.711 169.509,120.622 170.777 C 122.188 172.958,122.588 173.081,131.130 174.009 C 137.320 174.682,137.751 175.022,139.852 180.889 C 140.425 182.490,140.948 183.860,141.014 183.934 C 141.306 184.259,146.270 182.210,146.896 181.504 C 147.279 181.073,147.850 179.853,148.165 178.792 C 149.390 174.670,150.364 174.035,156.185 173.572 C 161.813 173.124,162.824 172.737,165.918 169.843 C 167.393 168.463,169.369 166.909,170.308 166.389 C 171.836 165.544,172.103 165.166,172.837 162.822 C 174.563 157.311,173.426 109.797,171.205 94.600 C 169.904 85.697,169.021 71.949,168.416 51.200 C 168.014 37.385,167.784 32.621,167.393 30.000 C 166.085 21.237,166.314 21.600,162.112 21.600 C 159.974 21.600,158.843 21.745,159.000 22.000 C 159.136 22.220,159.090 22.400,158.897 22.400 C 158.304 22.400,156.800 25.444,156.796 26.654 C 156.793 27.285,156.481 28.700,156.101 29.800 C 155.469 31.633,155.394 35.552,155.205 76.600 L 154.999 121.400 153.499 124.129 C 152.675 125.630,152.000 127.122,152.000 127.445 C 152.000 131.601,144.864 134.345,138.724 132.550 C 136.168 131.803,132.812 128.554,131.341 125.400 L 130.408 123.400 130.404 79.343 C 130.399 22.355,130.330 21.600,125.175 21.600 C 122.496 21.600,122.475 21.608,122.007 22.900 M281.000 44.493 C 275.217 45.883,273.317 46.786,271.362 49.069 C 270.049 50.604,269.082 51.308,267.626 51.791 C 265.433 52.520,265.110 52.820,263.869 55.279 C 263.095 56.811,261.331 58.156,259.133 58.889 C 258.935 58.955,258.535 60.030,258.245 61.278 C 257.672 63.740,255.921 66.753,254.043 68.507 C 252.361 70.077,251.569 73.603,249.978 86.600 C 249.789 88.140,249.629 117.750,249.621 152.400 C 249.606 220.172,249.553 218.208,251.559 224.200 C 251.780 224.860,252.153 226.152,252.388 227.070 C 252.778 228.595,252.985 228.797,254.759 229.386 C 255.828 229.742,258.025 231.088,259.641 232.380 C 262.920 234.999,264.124 235.468,268.989 236.021 C 274.429 236.639,275.227 237.215,277.170 241.928 C 277.829 243.526,278.752 245.321,279.220 245.917 C 280.224 247.193,280.084 250.077,278.772 255.162 C 277.431 260.355,277.017 265.189,276.385 283.000 C 275.706 302.112,274.571 313.960,272.992 318.412 C 270.039 326.740,270.125 346.583,273.126 349.076 C 273.988 349.792,274.927 350.968,275.211 351.689 C 275.976 353.630,277.550 355.170,279.800 356.178 C 280.900 356.671,282.388 357.571,283.106 358.178 C 284.860 359.660,285.368 359.338,286.143 356.252 C 286.747 353.847,286.799 341.226,286.793 200.318 L 286.787 47.000 285.893 45.431 C 284.805 43.521,284.936 43.546,281.000 44.493 M140.859 192.465 C 140.128 200.385,139.649 211.946,139.403 227.600 C 138.742 269.576,137.744 287.672,135.199 303.800 C 134.175 310.289,133.580 319.756,133.263 334.600 C 132.903 351.467,133.052 353.820,134.552 354.940 C 135.186 355.413,136.774 356.835,138.081 358.100 L 140.458 360.400 143.954 360.400 C 147.697 360.400,148.314 360.124,149.864 357.759 C 150.226 357.206,151.212 356.402,152.055 355.972 C 154.882 354.530,154.862 354.637,154.828 341.526 C 154.791 326.565,153.875 310.421,152.620 302.600 C 150.284 288.037,149.528 275.159,148.817 237.800 C 148.367 214.154,148.123 206.481,147.579 198.800 C 147.045 191.256,147.078 191.358,144.869 190.397 C 143.841 189.950,142.621 189.122,142.157 188.557 L 141.314 187.530 140.859 192.465 " stroke="none" fill="#edeef5" fill-rule="evenodd"></path><path id="path1" d="M121.076 23.677 C 119.989 25.585,118.527 34.274,118.228 40.600 C 117.872 48.129,117.035 57.980,115.830 68.826 C 114.667 79.300,113.799 93.144,113.200 110.800 C 112.965 117.730,112.594 127.810,112.376 133.200 C 111.458 155.849,111.443 157.977,112.179 161.400 C 113.324 166.732,113.403 166.875,117.110 170.271 C 121.369 174.173,121.515 174.253,125.000 174.581 C 134.248 175.452,135.507 176.013,137.600 180.200 L 139.000 183.000 138.983 189.600 C 138.973 193.230,138.745 202.770,138.477 210.800 C 137.057 253.190,136.627 261.570,135.014 278.200 C 132.457 304.566,130.711 348.981,132.043 353.780 C 133.976 360.743,145.509 364.483,150.573 359.790 C 151.130 359.274,152.230 358.360,153.019 357.759 C 156.510 355.095,156.787 352.470,156.036 329.148 C 155.321 306.974,154.559 293.971,153.190 280.600 C 151.484 263.937,150.791 251.144,149.808 218.200 C 149.182 197.244,149.051 194.589,148.337 188.400 C 147.917 184.759,147.944 184.458,148.972 181.200 C 150.765 175.521,151.405 175.015,157.200 174.691 C 163.671 174.330,164.912 173.894,168.372 170.766 C 170.038 169.260,171.959 167.524,172.643 166.907 C 173.655 165.993,173.979 165.266,174.387 162.992 C 175.304 157.884,174.769 118.918,173.387 90.200 C 172.831 78.643,172.512 73.933,171.599 63.800 C 171.401 61.600,170.952 54.220,170.602 47.400 C 170.246 40.468,169.693 33.677,169.349 32.000 C 169.010 30.350,168.553 28.100,168.333 27.000 C 167.985 25.257,166.511 22.138,166.197 22.479 C 166.136 22.546,166.321 23.770,166.609 25.200 C 167.696 30.592,167.902 33.570,168.416 51.200 C 169.021 71.949,169.904 85.697,171.205 94.600 C 173.426 109.797,174.563 157.311,172.837 162.822 C 172.103 165.166,171.836 165.544,170.308 166.389 C 169.369 166.909,167.393 168.463,165.918 169.843 C 162.824 172.737,161.813 173.124,156.185 173.572 C 150.364 174.035,149.390 174.670,148.165 178.792 C 147.850 179.853,147.279 181.073,146.896 181.504 C 146.270 182.210,141.306 184.259,141.014 183.934 C 140.948 183.860,140.425 182.490,139.852 180.889 C 137.751 175.022,137.320 174.682,131.130 174.009 C 122.588 173.081,122.188 172.958,120.622 170.777 C 119.711 169.509,118.517 168.467,117.223 167.812 C 113.523 165.937,113.367 164.365,113.963 135.118 C 114.597 104.044,115.114 94.930,116.784 85.400 C 118.502 75.592,119.242 66.357,120.019 45.000 C 120.402 34.452,121.137 25.637,121.827 23.300 C 122.198 22.046,121.927 22.181,121.076 23.677 M128.570 23.000 C 130.187 27.486,130.400 34.038,130.404 79.343 L 130.408 123.400 131.341 125.400 C 132.812 128.554,136.168 131.803,138.724 132.550 C 144.864 134.345,152.000 131.601,152.000 127.445 C 152.000 127.122,152.675 125.630,153.499 124.129 L 154.999 121.400 155.205 76.600 C 155.394 35.552,155.469 31.633,156.101 29.800 C 156.481 28.700,156.794 27.260,156.797 26.600 C 156.800 25.940,157.172 24.795,157.623 24.055 C 158.629 22.404,158.548 22.307,156.653 22.888 C 152.594 24.134,152.687 22.955,152.420 76.800 L 152.192 122.600 150.796 125.987 C 147.990 132.794,139.802 133.883,135.840 127.976 C 135.158 126.958,134.060 125.346,133.400 124.392 L 132.200 122.659 131.989 76.830 C 131.830 42.206,131.658 30.658,131.289 29.603 C 131.020 28.834,130.800 27.751,130.800 27.197 C 130.800 26.642,130.422 25.471,129.959 24.594 C 128.984 22.745,128.122 21.756,128.570 23.000 M283.806 41.301 C 283.380 41.539,280.505 42.598,277.416 43.654 C 272.199 45.437,271.685 45.704,270.183 47.417 C 269.293 48.432,267.681 49.743,266.601 50.331 C 265.512 50.923,263.845 52.374,262.862 53.585 C 261.885 54.786,260.426 56.248,259.619 56.832 C 258.657 57.529,257.718 58.802,256.895 60.525 C 256.204 61.972,255.024 63.840,254.272 64.677 C 251.835 67.393,249.034 75.799,246.967 86.600 C 246.534 88.863,246.429 101.472,246.416 152.400 L 246.401 215.400 247.760 219.400 C 250.760 228.233,251.684 229.807,254.800 231.398 C 255.790 231.903,257.251 233.043,258.047 233.931 C 259.728 235.808,261.564 236.451,267.938 237.398 C 273.895 238.282,274.222 238.541,275.987 243.763 C 277.283 247.595,277.283 247.740,276.033 262.000 C 275.811 264.530,275.439 271.190,275.206 276.800 C 274.595 291.499,273.973 297.994,272.391 306.200 C 269.397 321.721,268.538 345.255,270.822 349.128 C 272.549 352.054,276.746 356.832,278.278 357.614 C 278.895 357.929,280.260 358.765,281.311 359.470 C 284.548 361.644,286.579 361.373,288.000 358.580 C 288.943 356.725,289.126 47.813,288.185 45.323 C 287.004 42.197,285.187 40.528,283.806 41.301 M285.893 45.431 L 286.787 47.000 286.793 200.318 C 286.799 341.226,286.747 353.847,286.143 356.252 C 285.368 359.338,284.860 359.660,283.106 358.178 C 282.388 357.571,280.900 356.671,279.800 356.178 C 277.550 355.170,275.976 353.630,275.211 351.689 C 274.927 350.968,273.988 349.792,273.126 349.076 C 270.125 346.583,270.039 326.740,272.992 318.412 C 274.571 313.960,275.706 302.112,276.385 283.000 C 277.017 265.189,277.431 260.355,278.772 255.162 C 280.084 250.077,280.224 247.193,279.220 245.917 C 278.752 245.321,277.829 243.526,277.170 241.928 C 275.227 237.215,274.429 236.639,268.989 236.021 C 264.124 235.468,262.920 234.999,259.641 232.380 C 258.025 231.088,255.828 229.742,254.759 229.386 C 252.985 228.797,252.778 228.595,252.388 227.070 C 252.153 226.152,251.780 224.860,251.559 224.200 C 249.553 218.208,249.606 220.172,249.621 152.400 C 249.629 117.750,249.789 88.140,249.978 86.600 C 251.569 73.603,252.361 70.077,254.043 68.507 C 255.921 66.753,257.672 63.740,258.245 61.278 C 258.535 60.030,258.935 58.955,259.133 58.889 C 261.331 58.156,263.095 56.811,263.869 55.279 C 265.110 52.820,265.433 52.520,267.626 51.791 C 269.082 51.308,270.049 50.604,271.362 49.069 C 273.317 46.786,275.217 45.883,281.000 44.493 C 284.936 43.546,284.805 43.521,285.893 45.431 M144.869 190.397 C 147.078 191.358,147.045 191.256,147.579 198.800 C 148.123 206.481,148.367 214.154,148.817 237.800 C 149.528 275.159,150.284 288.037,152.620 302.600 C 153.875 310.421,154.791 326.565,154.828 341.526 C 154.862 354.637,154.882 354.530,152.055 355.972 C 151.212 356.402,150.226 357.206,149.864 357.759 C 148.314 360.124,147.697 360.400,143.954 360.400 L 140.458 360.400 138.081 358.100 C 136.774 356.835,135.186 355.413,134.552 354.940 C 133.052 353.820,132.903 351.467,133.263 334.600 C 133.580 319.756,134.175 310.289,135.199 303.800 C 137.744 287.672,138.742 269.576,139.403 227.600 C 139.649 211.946,140.128 200.385,140.859 192.465 L 141.314 187.530 142.157 188.557 C 142.621 189.122,143.841 189.950,144.869 190.397 " stroke="none" fill="#b0b4b8" fill-rule="evenodd"></path><path id="path2" d="M118.892 23.201 C 117.406 24.106,117.097 24.688,116.018 28.600 C 115.593 30.140,114.892 32.390,114.459 33.600 C 112.809 38.216,111.794 52.698,111.206 80.000 C 110.318 121.264,109.997 127.824,108.396 137.400 C 105.906 152.294,106.023 158.887,108.845 162.800 C 109.242 163.350,109.922 165.150,110.356 166.800 C 111.872 172.560,116.998 176.372,124.087 177.012 C 128.427 177.403,129.793 177.863,131.815 179.613 C 132.823 180.486,133.814 181.200,134.016 181.200 C 136.057 181.200,136.511 191.322,135.595 216.368 C 135.149 228.554,134.648 234.258,133.552 239.600 C 131.257 250.785,130.328 267.847,129.578 312.600 C 129.345 326.460,129.020 339.870,128.855 342.400 C 127.762 359.146,131.273 364.200,144.000 364.200 L 150.600 364.200 152.800 362.964 C 159.094 359.426,159.085 359.493,158.455 320.400 C 157.581 266.207,156.903 252.371,154.565 241.000 C 151.938 228.226,150.863 180.177,153.153 177.887 C 153.356 177.684,156.418 177.275,159.957 176.980 C 167.575 176.342,169.409 175.720,170.976 173.239 C 171.581 172.280,172.570 171.372,173.379 171.035 C 177.301 169.396,177.789 164.921,177.241 135.600 C 177.004 122.950,176.628 100.990,176.404 86.800 C 175.521 30.847,174.893 25.497,168.913 22.948 C 166.915 22.097,166.671 22.285,167.819 23.789 C 169.773 26.351,170.738 31.398,171.606 43.600 C 172.036 49.650,172.654 58.020,172.979 62.200 C 174.174 77.574,174.915 101.351,175.422 140.600 C 175.723 163.841,175.549 165.609,172.718 168.128 C 171.773 168.968,169.920 170.692,168.600 171.959 C 165.942 174.509,164.867 174.826,156.800 175.432 C 150.376 175.914,148.732 179.285,149.545 190.303 C 149.784 193.546,150.080 199.890,150.204 204.400 C 151.069 236.038,151.960 253.085,153.601 269.400 C 156.615 299.362,158.143 351.531,156.120 355.400 C 153.096 361.187,144.460 364.524,139.067 361.989 C 136.433 360.752,131.859 356.149,131.279 354.154 C 129.969 349.648,132.064 290.121,134.199 271.200 C 135.464 259.994,136.533 242.745,137.188 223.000 C 138.531 182.494,138.489 185.119,137.828 183.262 C 135.694 177.271,134.012 176.223,124.971 175.251 C 121.345 174.862,119.045 173.946,118.109 172.518 C 117.762 171.988,116.712 171.027,115.775 170.383 C 110.916 167.040,109.808 160.428,110.984 141.800 C 111.504 133.567,111.914 123.800,112.604 103.200 C 113.234 84.371,114.213 69.259,115.595 57.000 C 116.016 53.260,116.650 46.420,117.003 41.800 C 117.827 31.009,119.130 24.842,120.944 23.152 C 122.110 22.065,120.699 22.099,118.892 23.201 M130.167 23.721 C 130.721 24.447,131.580 26.562,132.076 28.421 L 132.978 31.800 133.189 77.231 L 133.400 122.662 134.713 124.431 C 135.436 125.404,136.430 126.826,136.923 127.590 C 140.180 132.645,147.494 131.741,149.785 126.000 L 150.982 123.000 151.217 77.200 C 151.493 23.289,151.463 23.696,155.263 22.798 L 156.600 22.482 154.894 22.441 C 152.492 22.383,150.663 24.135,149.717 27.400 C 149.079 29.599,149.003 33.700,148.810 76.400 C 148.577 127.983,148.738 124.961,146.111 127.309 C 144.080 129.124,139.601 129.084,139.600 127.251 C 139.600 126.893,139.060 125.459,138.400 124.064 L 137.200 121.528 137.200 78.090 C 137.200 30.832,137.254 32.062,134.985 27.712 C 134.666 27.100,134.404 26.319,134.402 25.975 C 134.398 24.777,131.173 22.400,129.554 22.400 C 129.337 22.400,129.613 22.994,130.167 23.721 M280.974 37.531 C 280.079 37.951,278.670 38.890,277.842 39.617 C 276.806 40.526,275.317 41.231,273.068 41.877 C 269.248 42.974,268.093 43.717,267.000 45.776 C 266.388 46.930,265.744 47.456,264.256 48.020 C 261.848 48.932,260.881 49.771,260.002 51.713 C 259.576 52.653,258.648 53.649,257.549 54.346 C 256.295 55.142,255.569 55.981,255.050 57.234 C 253.888 60.040,253.815 60.140,252.014 61.359 C 249.920 62.778,249.073 64.563,248.024 69.779 C 247.320 73.282,247.100 73.791,245.712 75.137 C 242.288 78.460,242.343 77.111,242.499 154.000 C 242.648 227.518,242.430 222.386,245.531 225.200 C 246.811 226.362,247.690 227.567,248.011 228.600 C 248.940 231.597,249.579 232.427,251.718 233.418 C 253.039 234.030,254.154 234.919,254.808 235.882 C 256.371 238.184,258.027 239.103,261.114 239.382 C 274.141 240.560,274.168 240.605,273.594 259.800 C 273.147 274.746,272.678 279.461,271.165 284.220 C 268.467 292.706,267.608 302.521,266.970 332.200 C 266.582 350.210,267.249 353.427,272.121 357.060 C 273.552 358.127,275.024 359.502,275.393 360.115 C 278.295 364.944,287.677 365.609,292.100 361.299 L 293.600 359.838 293.600 202.573 C 293.600 40.694,293.616 42.269,291.971 39.959 C 290.033 37.238,284.295 35.971,280.974 37.531 M286.433 40.466 C 287.447 41.037,288.286 41.960,288.887 43.166 L 289.800 45.000 289.800 201.400 C 289.800 287.420,289.663 358.288,289.496 358.885 C 288.620 362.013,281.950 362.831,280.215 360.024 C 280.083 359.811,279.067 359.142,277.957 358.538 C 275.764 357.344,271.524 352.587,270.011 349.622 C 267.502 344.703,268.518 320.965,272.188 298.800 C 273.784 289.155,274.240 284.362,274.792 271.400 C 275.017 266.120,275.405 258.633,275.655 254.763 C 276.468 242.145,275.166 239.393,267.840 238.252 C 260.167 237.057,259.641 236.883,257.424 234.799 C 256.311 233.753,254.492 232.343,253.383 231.666 C 251.448 230.484,250.085 228.691,249.394 226.422 C 249.230 225.884,248.591 224.623,247.974 223.619 C 244.995 218.778,245.168 223.494,245.291 150.555 L 245.400 85.400 247.535 78.800 C 248.709 75.170,250.111 70.771,250.650 69.025 C 251.422 66.528,252.019 65.435,253.444 63.912 C 254.441 62.846,255.614 61.167,256.050 60.180 C 256.486 59.193,257.884 57.354,259.156 56.093 C 260.428 54.832,261.870 53.216,262.361 52.502 C 262.851 51.787,264.096 50.724,265.126 50.139 C 266.157 49.554,267.994 48.114,269.210 46.940 C 271.194 45.022,271.933 44.623,276.460 43.026 C 279.233 42.048,282.109 40.878,282.851 40.426 C 284.522 39.407,284.548 39.407,286.433 40.466 " stroke="none" fill="#848c8c" fill-rule="evenodd"></path><path id="path3" d="M99.711 15.463 C 98.615 15.581,97.771 15.953,97.305 16.522 C 96.910 17.005,95.932 17.734,95.132 18.142 C 94.094 18.672,93.295 19.587,92.339 21.342 L 91.000 23.800 90.877 32.800 C 90.809 37.750,90.652 57.235,90.529 76.100 C 90.309 109.635,90.286 110.400,89.532 110.400 C 85.088 110.400,84.756 112.576,84.512 143.250 C 84.300 169.901,84.390 171.239,86.433 171.951 C 89.412 172.990,90.843 175.643,90.792 180.032 C 90.751 183.592,91.441 184.455,94.534 184.711 L 96.800 184.899 96.800 187.068 C 96.800 190.100,97.900 191.200,100.930 191.200 L 103.096 191.200 103.572 193.619 C 104.131 196.463,104.588 196.752,109.000 197.048 C 110.540 197.152,112.565 197.329,113.500 197.443 L 115.200 197.649 115.200 206.748 L 115.200 215.846 113.534 216.223 C 111.233 216.744,110.467 217.946,109.976 221.808 C 109.448 225.953,108.855 269.204,108.824 305.850 L 108.800 334.700 107.590 334.942 C 104.408 335.578,103.773 337.871,103.846 348.456 C 103.902 356.579,104.349 357.987,107.034 358.506 L 108.669 358.821 109.046 364.808 C 109.483 371.744,109.616 372.006,112.870 372.311 C 115.335 372.543,115.586 372.799,115.594 375.100 C 115.602 377.404,116.620 378.400,118.967 378.400 C 121.397 378.400,122.000 378.706,122.002 379.943 C 122.013 385.063,121.741 385.000,144.000 385.000 C 166.156 385.000,166.000 385.034,166.000 380.187 C 166.000 378.749,166.618 378.415,169.300 378.405 C 171.195 378.399,172.398 377.273,172.405 375.500 C 172.417 372.823,172.725 372.400,174.665 372.400 C 177.825 372.400,178.266 371.560,178.610 364.879 L 178.900 359.242 180.050 359.021 C 184.287 358.207,184.016 358.661,184.368 351.800 C 185.093 337.697,183.667 330.024,180.202 329.374 L 178.932 329.136 178.660 279.781 C 178.307 215.488,178.081 212.422,173.582 210.994 C 172.776 210.738,172.304 197.621,173.100 197.588 C 175.856 197.473,183.057 196.313,183.443 195.921 C 183.725 195.634,184.105 194.500,184.287 193.400 L 184.618 191.400 186.624 191.154 C 190.518 190.677,190.677 190.517,191.154 186.619 L 191.400 184.610 193.361 184.329 C 196.434 183.890,196.732 183.199,197.409 174.938 L 197.677 171.676 199.432 171.234 C 203.323 170.254,204.256 162.737,203.185 141.000 C 202.680 130.771,202.570 130.324,199.862 127.483 L 197.719 125.235 197.485 75.118 C 197.195 13.129,197.749 18.031,190.800 15.941 C 188.364 15.209,170.086 15.219,167.908 15.954 C 164.767 17.013,164.646 21.825,167.741 22.607 C 174.871 24.408,175.492 29.011,176.404 86.800 C 176.628 100.990,177.004 122.950,177.241 135.600 C 177.789 164.921,177.301 169.396,173.379 171.035 C 172.570 171.372,171.581 172.280,170.976 173.239 C 169.409 175.720,167.575 176.342,159.957 176.980 C 156.418 177.275,153.356 177.684,153.153 177.887 C 150.863 180.177,151.938 228.226,154.565 241.000 C 156.903 252.371,157.581 266.207,158.455 320.400 C 159.085 359.493,159.094 359.426,152.800 362.964 L 150.600 364.200 144.000 364.200 C 131.273 364.200,127.762 359.146,128.855 342.400 C 129.020 339.870,129.345 326.460,129.578 312.600 C 130.328 267.847,131.257 250.785,133.552 239.600 C 134.648 234.258,135.149 228.554,135.595 216.368 C 136.511 191.322,136.057 181.200,134.016 181.200 C 133.814 181.200,132.823 180.486,131.815 179.613 C 129.793 177.863,128.427 177.403,124.087 177.012 C 116.998 176.372,111.872 172.560,110.356 166.800 C 109.922 165.150,109.242 163.350,108.845 162.800 C 106.023 158.887,105.906 152.294,108.396 137.400 C 109.997 127.824,110.318 121.264,111.206 80.000 C 111.793 52.720,112.809 38.224,114.457 33.600 C 114.888 32.390,115.670 29.871,116.195 28.001 C 117.210 24.386,118.245 23.023,120.319 22.569 C 122.314 22.133,122.400 22.047,122.400 20.472 C 122.400 17.972,121.706 16.517,120.271 16.005 C 118.974 15.543,102.897 15.119,99.711 15.463 M133.400 15.566 C 129.378 15.986,128.888 16.218,128.415 17.923 C 127.529 21.112,127.911 22.158,130.109 22.562 C 131.790 22.871,134.399 24.924,134.402 25.941 C 134.404 26.304,134.666 27.100,134.985 27.712 C 137.254 32.062,137.200 30.832,137.200 78.090 L 137.200 121.528 138.400 124.064 C 139.060 125.459,139.600 126.893,139.600 127.251 C 139.601 129.084,144.080 129.124,146.111 127.309 C 148.738 124.961,148.577 127.983,148.810 76.400 C 149.046 24.204,148.922 26.396,151.800 23.700 C 153.041 22.537,153.437 22.400,155.545 22.400 C 160.299 22.400,159.834 17.429,155.000 16.577 C 154.120 16.422,153.151 16.098,152.848 15.855 C 152.194 15.335,137.677 15.119,133.400 15.566 M274.288 15.644 C 267.016 16.203,266.012 16.811,266.002 20.661 C 266.000 21.422,265.712 21.551,263.500 21.777 C 255.449 22.601,254.237 23.149,253.783 26.171 L 253.509 28.000 251.814 28.000 C 248.121 28.000,246.800 29.267,246.800 32.812 L 246.800 34.304 244.346 34.481 C 241.313 34.701,240.800 35.278,240.800 38.476 L 240.800 40.800 239.026 40.800 C 235.445 40.800,234.866 41.427,234.435 45.776 C 234.212 48.035,234.138 48.168,232.933 48.479 C 231.621 48.817,229.600 50.842,229.600 51.818 C 229.600 52.125,229.249 53.056,228.819 53.888 C 228.226 55.036,227.971 56.629,227.760 60.507 C 227.484 65.592,227.478 65.615,226.441 65.842 C 221.291 66.969,221.519 62.527,221.700 158.041 C 221.848 236.354,221.771 233.629,223.851 234.420 C 226.317 235.357,227.592 237.464,227.983 241.243 C 228.496 246.195,229.384 247.190,233.300 247.198 C 234.309 247.200,234.400 247.327,234.400 248.740 C 234.400 252.332,235.705 253.600,239.404 253.600 L 241.089 253.600 241.334 255.669 C 241.468 256.808,241.723 257.883,241.899 258.059 C 242.327 258.487,248.224 259.600,250.067 259.600 C 252.708 259.600,252.800 259.728,252.800 263.412 L 252.800 266.738 251.406 267.198 C 247.170 268.596,246.501 275.100,246.425 315.610 L 246.400 329.021 244.700 329.810 C 239.657 332.153,239.847 349.023,244.944 351.454 L 246.293 352.097 246.576 357.748 C 246.891 364.016,247.252 365.214,249.005 365.800 C 250.718 366.373,253.200 369.083,253.200 370.381 C 253.200 370.964,253.350 371.611,253.533 371.820 C 253.715 372.029,254.074 372.936,254.329 373.835 C 255.073 376.455,257.875 377.939,263.300 378.584 C 265.459 378.841,265.600 378.923,265.602 379.929 C 265.613 384.905,265.340 384.840,287.156 385.092 C 305.434 385.303,312.254 384.873,314.297 383.379 C 315.986 382.143,315.958 385.293,315.958 200.200 C 315.958 18.857,315.956 18.596,314.500 17.140 C 312.795 15.435,288.683 14.538,274.288 15.644 M289.466 37.931 C 291.591 39.016,292.706 40.594,293.204 43.222 C 293.461 44.577,293.600 100.523,293.600 202.573 L 293.600 359.838 292.100 361.299 C 287.677 365.609,278.295 364.944,275.393 360.115 C 275.024 359.502,273.552 358.127,272.121 357.060 C 267.249 353.427,266.582 350.210,266.970 332.200 C 267.608 302.521,268.467 292.706,271.165 284.220 C 272.678 279.461,273.147 274.746,273.594 259.800 C 274.168 240.605,274.141 240.560,261.114 239.382 C 258.027 239.103,256.371 238.184,254.808 235.882 C 254.154 234.919,253.039 234.030,251.718 233.418 C 249.579 232.427,248.940 231.597,248.011 228.600 C 247.690 227.567,246.811 226.362,245.531 225.200 C 242.430 222.386,242.648 227.518,242.499 154.000 C 242.343 77.111,242.288 78.460,245.712 75.137 C 247.100 73.791,247.320 73.282,248.024 69.779 C 249.073 64.563,249.920 62.778,252.014 61.359 C 253.815 60.140,253.888 60.040,255.050 57.234 C 255.569 55.981,256.295 55.142,257.549 54.346 C 258.648 53.649,259.576 52.653,260.002 51.713 C 260.881 49.771,261.848 48.932,264.256 48.020 C 265.744 47.456,266.388 46.930,267.000 45.776 C 268.093 43.717,269.248 42.974,273.068 41.877 C 275.317 41.231,276.806 40.526,277.842 39.617 C 281.224 36.647,285.685 36.000,289.466 37.931 " stroke="none" fill="#444c54" fill-rule="evenodd"></path><path id="path4" d="M129.783 24.197 C 130.342 25.295,130.800 26.646,130.800 27.199 C 130.800 27.753,131.020 28.834,131.289 29.603 C 131.658 30.658,131.830 42.206,131.989 76.830 L 132.200 122.659 133.400 124.392 C 134.060 125.346,135.158 126.958,135.840 127.976 C 139.802 133.883,147.990 132.794,150.796 125.987 L 152.192 122.600 152.420 76.800 C 152.684 23.470,152.658 23.822,156.434 22.993 C 157.107 22.845,157.578 22.645,157.481 22.548 C 157.385 22.451,156.540 22.544,155.604 22.754 C 151.405 23.698,151.497 22.563,151.217 77.200 L 150.982 123.000 149.785 126.000 C 147.494 131.741,140.180 132.645,136.923 127.590 C 136.430 126.826,135.436 125.404,134.713 124.431 L 133.400 122.662 133.200 77.431 L 133.000 32.200 132.081 28.563 C 131.418 25.934,130.830 24.547,129.964 23.563 L 128.766 22.200 129.783 24.197 M167.134 23.700 C 167.574 24.415,168.113 25.900,168.333 27.000 C 168.553 28.100,169.010 30.350,169.349 32.000 C 169.693 33.677,170.246 40.468,170.602 47.400 C 170.952 54.220,171.401 61.600,171.599 63.800 C 172.512 73.933,172.831 78.643,173.387 90.200 C 174.769 118.918,175.304 157.884,174.387 162.992 C 173.979 165.266,173.655 165.993,172.643 166.907 C 171.959 167.524,170.038 169.260,168.372 170.766 C 164.912 173.894,163.671 174.330,157.200 174.691 C 151.405 175.015,150.765 175.521,148.972 181.200 C 147.944 184.458,147.917 184.759,148.337 188.400 C 149.051 194.589,149.182 197.244,149.808 218.200 C 150.791 251.144,151.484 263.937,153.190 280.600 C 154.559 293.971,155.321 306.974,156.036 329.148 C 156.787 352.470,156.510 355.095,153.019 357.759 C 152.230 358.360,151.130 359.274,150.573 359.790 C 145.509 364.483,133.976 360.743,132.043 353.780 C 130.711 348.981,132.457 304.566,135.014 278.200 C 136.627 261.570,137.057 253.190,138.477 210.800 C 138.745 202.770,138.973 193.230,138.983 189.600 L 139.000 183.000 137.600 180.200 C 135.507 176.013,134.248 175.452,125.000 174.581 C 121.515 174.253,121.369 174.173,117.110 170.271 C 113.403 166.875,113.324 166.732,112.179 161.400 C 111.443 157.977,111.458 155.849,112.376 133.200 C 112.594 127.810,112.965 117.730,113.200 110.800 C 113.799 93.144,114.667 79.300,115.830 68.826 C 117.035 57.980,117.872 48.129,118.228 40.600 C 118.524 34.338,120.031 25.335,121.040 23.795 C 121.595 22.948,121.605 22.823,121.101 23.017 C 119.418 23.663,117.833 30.927,117.003 41.800 C 116.650 46.420,116.016 53.260,115.595 57.000 C 114.213 69.259,113.234 84.371,112.604 103.200 C 111.914 123.800,111.504 133.567,110.984 141.800 C 109.808 160.428,110.916 167.040,115.775 170.383 C 116.712 171.027,117.762 171.988,118.109 172.518 C 119.045 173.946,121.345 174.862,124.971 175.251 C 134.012 176.223,135.694 177.271,137.828 183.262 C 138.489 185.119,138.531 182.494,137.188 223.000 C 136.533 242.745,135.464 259.994,134.199 271.200 C 132.064 290.121,129.969 349.648,131.279 354.154 C 131.859 356.149,136.433 360.752,139.067 361.989 C 144.460 364.524,153.096 361.187,156.120 355.400 C 158.143 351.531,156.615 299.362,153.601 269.400 C 151.960 253.085,151.069 236.038,150.204 204.400 C 150.080 199.890,149.784 193.546,149.545 190.303 C 148.732 179.285,150.376 175.914,156.800 175.432 C 164.867 174.826,165.942 174.509,168.600 171.959 C 169.920 170.692,171.773 168.968,172.718 168.128 C 175.549 165.609,175.723 163.841,175.422 140.600 C 174.915 101.351,174.174 77.574,172.979 62.200 C 172.654 58.020,172.036 49.650,171.606 43.600 C 170.738 31.398,169.773 26.351,167.819 23.789 C 166.483 22.038,166.080 21.986,167.134 23.700 M282.851 40.426 C 282.109 40.878,279.233 42.048,276.460 43.026 C 271.933 44.623,271.194 45.022,269.210 46.940 C 267.994 48.114,266.157 49.554,265.126 50.139 C 264.096 50.724,262.851 51.787,262.361 52.502 C 261.870 53.216,260.428 54.832,259.156 56.093 C 257.884 57.354,256.486 59.193,256.050 60.180 C 255.614 61.167,254.441 62.846,253.444 63.912 C 252.019 65.435,251.422 66.528,250.650 69.025 C 250.111 70.771,248.709 75.170,247.535 78.800 L 245.400 85.400 245.291 150.555 C 245.168 223.494,244.995 218.778,247.974 223.619 C 248.591 224.623,249.230 225.884,249.394 226.422 C 250.085 228.691,251.448 230.484,253.383 231.666 C 254.492 232.343,256.311 233.753,257.424 234.799 C 259.641 236.883,260.167 237.057,267.840 238.252 C 275.166 239.393,276.468 242.145,275.655 254.763 C 275.405 258.633,275.017 266.120,274.792 271.400 C 274.240 284.362,273.784 289.155,272.188 298.800 C 268.518 320.965,267.502 344.703,270.011 349.622 C 271.524 352.587,275.764 357.344,277.957 358.538 C 279.067 359.142,280.083 359.811,280.215 360.024 C 281.950 362.831,288.620 362.013,289.496 358.885 C 289.663 358.288,289.800 287.420,289.800 201.400 L 289.800 45.000 288.887 43.166 C 287.392 40.164,285.035 39.094,282.851 40.426 M286.745 42.621 C 288.980 45.462,288.829 33.157,288.709 202.200 C 288.613 339.219,288.530 357.538,288.000 358.580 C 286.579 361.373,284.548 361.644,281.311 359.470 C 280.260 358.765,278.895 357.929,278.278 357.614 C 276.746 356.832,272.549 352.054,270.822 349.128 C 268.538 345.255,269.397 321.721,272.391 306.200 C 273.973 297.994,274.595 291.499,275.206 276.800 C 275.439 271.190,275.811 264.530,276.033 262.000 C 277.283 247.740,277.283 247.595,275.987 243.763 C 274.222 238.541,273.895 238.282,267.938 237.398 C 261.564 236.451,259.728 235.808,258.047 233.931 C 257.251 233.043,255.790 231.903,254.800 231.398 C 251.684 229.807,250.760 228.233,247.760 219.400 L 246.401 215.400 246.416 152.400 C 246.429 101.472,246.534 88.863,246.967 86.600 C 249.034 75.799,251.835 67.393,254.272 64.677 C 255.024 63.840,256.204 61.972,256.895 60.525 C 257.718 58.802,258.657 57.529,259.619 56.832 C 260.426 56.248,261.885 54.786,262.862 53.585 C 263.845 52.374,265.512 50.923,266.601 50.331 C 267.681 49.743,269.293 48.432,270.183 47.417 C 271.685 45.704,272.199 45.437,277.416 43.654 C 280.505 42.598,283.380 41.539,283.806 41.301 C 284.732 40.783,285.609 41.176,286.745 42.621 " stroke="none" fill="#a4acac" fill-rule="evenodd"></path></g></svg>